<svg width="245" height="141" viewBox="0 0 245 141" fill="none" xmlns="http://www.w3.org/2000/svg">
<g opacity="0.32">
<path d="M198.705 15.7851C199.213 16.6647 199.208 17.9155 198.549 19.5988C197.893 21.2732 196.623 23.2815 194.768 25.5822C191.062 30.1793 185.096 35.8474 177.314 42.2119C161.757 54.9358 139.014 70.3839 112.773 85.5342C86.5319 100.684 61.7818 112.657 42.984 119.768C33.5813 123.325 25.6898 125.657 19.8553 126.568C16.9353 127.024 14.5614 127.12 12.7833 126.851C10.9958 126.58 9.90999 125.959 9.40213 125.079C8.89426 124.2 8.89934 122.949 9.55885 121.266C10.2149 119.591 11.4843 117.583 13.3394 115.282C17.0461 110.685 23.0115 105.017 30.7932 98.6525C46.3504 85.9286 69.0937 70.4805 95.3347 55.3303C121.576 40.18 146.326 28.2078 165.124 21.0969C174.526 17.5399 182.418 15.2078 188.252 14.2963C191.172 13.8401 193.546 13.7449 195.324 14.0139C197.112 14.2844 198.198 14.9054 198.705 15.7851Z" stroke="black"/>
<path d="M237.37 99.1645C237.002 100.111 236.023 100.89 234.298 101.43C232.581 101.967 230.22 102.234 227.265 102.228C221.36 102.215 213.205 101.112 203.371 99.0284C183.709 94.8628 157.425 86.7991 129.183 75.8214C100.941 64.8438 76.1101 53.0391 58.7968 42.8326C50.1366 37.7273 43.3776 33.0336 39.0142 29.0546C36.8304 27.0633 35.27 25.2717 34.3666 23.7167C33.4584 22.1535 33.263 20.918 33.631 19.9713C33.9989 19.0246 34.9775 18.2454 36.703 17.7059C38.4194 17.1692 40.7801 16.9018 43.7356 16.9081C49.6408 16.9205 57.7954 18.0238 67.63 20.1074C87.2915 24.273 113.576 32.3367 141.818 43.3143C170.06 54.292 194.89 66.0967 212.204 76.3032C220.864 81.4085 227.623 86.1021 231.986 90.0811C234.17 92.0725 235.731 93.8641 236.634 95.4191C237.542 96.9823 237.738 98.2178 237.37 99.1645Z" stroke="black"/>
</g>
</svg>
